<!-- <svg width="442.217" height="85.281" viewBox="0 0 370 71.354" class="looka-1j8o68f">
    <path
        d="m30.075 5.103 2.562 10.19-7.378 31.765 9.737 13.946 9.748-13.946-7.378-31.765
2.562-10.19ZM52.4-.002 41.902 4.525l5.076 13.272a37.6 37.6 0 0 1 7.04-12.328zm-34.8 0L15.975
5.46a37.6 37.6 0 0 1 7.04 12.329L28.1 4.535zm-3.92 3.487L.006 13.213l1.252 14.64 7.214 2.263-5.51
8.139L30.2 71.358A262 262 0 0 1 13.682 3.485m42.639 0a262 262 0 0 1-16.518 67.873L67.03
38.255l-5.5-8.139 7.224-2.263 1.252-14.64z"
        xmlns="http://www.w3.org/2000/svg" fill="#197946" />
    <path
        d="M123.007 20.943a1.42 1.42 0 0 0-.289.866V49.91c0 .866.404 1.27 1.097 1.27l.923-.058c.346 0
.577.058.808.289.23.173.346.461.346.75s-.115.52-.346.75a.96.96 0 0 1-.692.289h-13.042a.96.96 0 0
1-.692-.289c-.231-.23-.347-.462-.347-.75s.116-.577.347-.75c.173-.231.461-.289.75-.289l1.789.058c.692
0 1.096-.462 1.096-1.27V37.447c0-.23-.115-.462-.288-.635s-.404-.23-.635-.23H102.06c-.231
0-.462.057-.635.23s-.288.404-.288.635v12.464c0 .808.404 1.27 1.211 1.27l1.732-.058c.288 0
.577.058.75.289.23.173.346.461.346.75s-.115.52-.289.75c-.23.173-.461.289-.75.289H91.096c-.289
0-.577-.116-.75-.289-.231-.23-.347-.462-.347-.75s.116-.577.347-.75c.23-.231.461-.289.808-.289l.923.058h.115c.635
0 .981-.462.981-1.27V21.81c0-.808-.404-1.212-1.096-1.212l-.923.058c-.347
0-.578-.058-.808-.289-.231-.173-.347-.462-.347-.75s.116-.52.347-.75c.173-.173.461-.289.75-.289h13.041c.289
0 .52.116.75.289.174.23.289.461.289.75 0 .346-.115.577-.346.75a.75.75 0 0
1-.75.289l-1.732-.058h-.115c-.404 0-.635.115-.808.346s-.288.52-.288.866v11.83c0
.23.115.461.288.634s.404.231.635.231h11.772c.23 0
.461-.058.635-.23s.288-.405.288-.636v-11.83c0-.807-.404-1.211-1.096-1.211l-1.79.058a.75.75 0 0
1-.75-.289c-.23-.173-.346-.404-.346-.75 0-.289.116-.52.347-.75a.96.96 0 0 1 .692-.289h13.042c.288 0
.519.116.692.289.23.23.346.461.346.75s-.115.577-.346.75c-.23.23-.462.289-.808.289l-.923-.058h-.116q-.432
0-.692.346m16.608 0c-.231.231-.289.52-.289.866v28.1c0 .924.346 1.328 1.154 1.27l.924-.058c.288 0
.577.058.75.289.23.173.346.461.346.75s-.115.52-.346.75a.96.96 0 0 1-.693.289h-12.233c-.289
0-.577-.116-.75-.289-.231-.23-.289-.462-.289-.75s.058-.577.288-.75c.231-.231.462-.289.808-.289l.924.058h.115c.635
0 .981-.462.981-1.27v-28.1a1.42 1.42 0 0 0-.288-.866c-.231-.288-.462-.346-.808-.346l-.924.058c-.346
0-.577-.058-.808-.289-.23-.173-.288-.462-.288-.75s.058-.52.288-.75a1.1 1.1 0 0 1
.75-.289h12.234c.289 0
.52.116.693.289.23.23.346.461.346.75s-.115.577-.346.75c-.173.23-.462.289-.75.289l-.924-.058h-.115c-.346
0-.577.115-.75.346m34.67 30.757h.115c.23 0
.461.058.577.173.173.173.23.347.23.577s-.057.404-.23.52c-.116.173-.289.23-.52.23h-6.29c-1.038
0-1.962-.346-2.712-1.096-.808-.692-1.212-1.616-1.327-2.654v-.058c-.058-1.039-.115-1.731-.115-2.25v-1.905c0-2.597-.693-4.559-2.193-5.828-1.443-1.27-3.232-1.904-5.31-1.904h-.865q-.346
0-.52.173c-.172.173-.172.288-.172.52V49.91c0 .808.346 1.27 1.154 1.27l1.731-.058c.289 0
.577.058.808.289.173.173.289.404.289.75 0
.288-.116.52-.289.75-.23.173-.462.289-.75.289h-13.042c-.288
0-.577-.116-.75-.289-.23-.23-.288-.462-.288-.75s.057-.577.288-.75c.231-.231.462-.289.808-.289l.923.058h.116c.635
0 .98-.462.98-1.27v-28.1q0-.52-.345-.866c-.174-.288-.52-.346-.924-.346l-.75.058c-.346
0-.577-.058-.808-.289-.23-.173-.288-.462-.288-.75s.057-.52.288-.75c.173-.173.462-.289.75-.289h13.965c4.155
0 7.271.693 9.233 2.135 2.02 1.385 3 3.578 3 6.579q0 3.549-2.25 5.886c-1.5 1.616-3.52 2.654-6.174
3.231 1.385 0 2.827.347 4.27 1.154 1.385.75 2.597 1.905 3.52 3.347.98 1.5 1.443 3.232 1.443 5.194q0
1.644.519 3.462c.288 1.212.692 1.904 1.154 2.02.23.058.52.115.75.115m-12.349-18.235c.808-1.327
1.212-3.174 1.212-5.424 0-2.597-.462-4.501-1.385-5.655-.923-1.212-2.366-1.79-4.27-1.79h-1.847c-.461
0-.692.232-.692.578v13.56q0 .347.173.52c.173.173.288.173.52.173h2.942c1.385 0 2.482-.634
3.347-1.962m40.96 9.349h.057c.289 0 .52.115.75.288.174.23.289.462.289.75v8.483c0
.23-.115.462-.288.692-.231.174-.462.231-.75.231-.982-.057-2.54-.057-4.56-.057h-21.697c-.23
0-.52-.116-.692-.289-.173-.23-.289-.462-.289-.75v-.058c0-.288.116-.577.289-.75.23-.173.52-.289.808-.289l.98.116c.693
0 1.04-.462 1.04-1.27V21.866c0-.346-.116-.634-.29-.923a.95.95 0 0 0-.865-.288l-.923.057c-.289
0-.52-.115-.75-.288a1.1 1.1 0 0
1-.289-.75v-.058c0-.289.116-.52.289-.693.173-.23.461-.288.692-.288h24.583c.288 0
.462.058.692.288.173.174.289.404.289.635v6.983q0 .432-.346.692c-.173.23-.404.289-.693.289h-.058a1.1
1.1 0 0 1-.692-.231.95.95 0 0
1-.289-.693c-.173-1.962-.807-3.404-1.962-4.328-1.269-1.096-3.404-1.615-6.232-1.615h-4.443c-.462
0-.693.23-.693.808v11.194c0 .462.116.866.462 1.212s.75.52 1.212.52h2.481c1.328 0 2.366-.52
3.174-1.558.693-.866 1.039-2.02
1.154-3.405.058-.23.173-.462.346-.635s.404-.288.693-.288.52.115.692.288c.231.231.289.462.289.75v11.6c0
.23-.058.518-.289.692-.173.173-.404.288-.692.288s-.52-.058-.693-.23-.288-.405-.346-.693c-.115-1.212-.52-2.25-1.212-3.174-.865-1.096-1.904-1.616-3.116-1.616h-2.481c-.462
0-.866.173-1.212.462-.346.346-.462.75-.462 1.212v12.291c0 .462.231.75.693.75h6.348c2.596 0 4.616-.75
6-2.135 1.213-1.27 1.848-3 2.02-5.251 0-.23.116-.462.347-.635a.93.93 0 0 1
.635-.288m30.687-20.14c3.059 2.655 4.56 7.098 4.56 13.273 0 5.655-1.501 9.983-4.444 12.868-2.943
2.943-7.444 4.386-13.619 4.386h-13.734c-.288
0-.519-.116-.75-.289-.173-.23-.288-.462-.288-.75s.115-.577.346-.75c.173-.173.462-.289.75-.289l1.154.058h.058c.288
0
.462-.116.635-.404q.173-.346.173-.866V21.924c0-.346-.116-.635-.289-.865s-.461-.347-.808-.347l-.923.058c-.288
0-.577-.058-.75-.288-.23-.174-.346-.462-.346-.75s.115-.52.288-.693c.231-.23.462-.346.75-.346h13.042q9.694
0 14.195 3.981m-5.25 22.679c.692-2.135 1.096-5.31
1.096-9.349s-.404-7.155-1.097-9.406c-.692-2.192-1.846-3.693-3.404-4.558s-3.751-1.328-6.521-1.328h-1.327c-.462
0-.693.289-.693.75v28.911c0 .52.231.75.693.75h1.327c2.77 0 4.963-.404 6.52-1.27s2.713-2.365
3.405-4.5m46.43-25.968c0-.23.116-.404.231-.577a.74.74 0 0 1 .577-.23h8.137c.23 0
.403.057.577.23s.23.346.23.577v.058c0
.23-.057.461-.23.577-.174.173-.404.288-.635.23l-1.385-.057h-.116c-.692 0-.98.404-.98
1.212v31.738a.44.44 0 0 1-.116.288c-.115.058-.173.116-.288.116h-2.886q-.173 0-.346-.173L255.718
23.77c-.115-.173-.288-.231-.461-.173s-.289.173-.289.404v26.371c0 .866.404 1.27 1.154
1.27l1.962-.116c.231 0 .462.116.635.231.115.173.23.404.23.635s-.115.404-.23.577a.74.74 0 0
1-.577.23h-8.137c-.23
0-.403-.057-.577-.23s-.23-.346-.23-.577.057-.462.23-.577c.174-.173.404-.231.635-.231l1.385.058c.808
0 1.154-.404 1.154-1.27V21.405a1.42 1.42 0 0
0-.288-.866c-.231-.288-.52-.346-.866-.346l-1.385.058c-.23.057-.461-.058-.635-.231-.173-.116-.23-.346-.23-.577v-.058c0-.23.057-.404.23-.577s.347-.23.577-.23h10.907q.26
0 .346.172l16.792
22.852c.116.173.289.173.462.115s.289-.173.289-.346V21.347c0-.75-.347-1.154-1.04-1.154h-.172l-1.962.115c-.231
0-.462-.115-.635-.23-.115-.174-.23-.404-.23-.635zm38.363 23.429h.058c.288 0
.519.115.75.288.173.23.288.462.288.75v8.483c0
.23-.115.462-.288.692-.231.174-.462.231-.75.231-.981-.057-2.54-.057-4.56-.057h-21.696c-.231
0-.52-.116-.693-.289-.173-.23-.288-.462-.288-.75v-.058c0-.288.115-.577.288-.75.23-.173.52-.289.808-.289l.98.116c.693
0 1.04-.462 1.04-1.27V21.866c0-.346-.116-.634-.289-.923a.95.95 0 0 0-.865-.288l-.924.057c-.288
0-.52-.115-.75-.288a1.1 1.1 0 0
1-.288-.75v-.058c0-.289.115-.52.288-.693.173-.23.462-.288.693-.288h24.582c.289 0
.462.058.693.288.173.174.288.404.288.635v6.983q0
.432-.346.692c-.173.23-.404.289-.693.289h-.057c-.231 0-.462-.058-.693-.231a.95.95 0 0
1-.288-.693c-.173-1.962-.808-3.404-1.962-4.328-1.27-1.096-3.405-1.615-6.232-1.615h-4.444c-.461
0-.692.23-.692.808v11.194c0 .462.115.866.461 1.212s.75.52 1.212.52h2.482c1.327 0 2.365-.52
3.173-1.558.693-.866 1.039-2.02
1.154-3.405.058-.23.174-.462.347-.635s.404-.288.692-.288.52.115.693.288c.23.231.288.462.288.75v11.6c0
.23-.058.518-.288.692-.174.173-.404.288-.693.288s-.52-.058-.692-.23-.289-.405-.347-.693c-.115-1.212-.519-2.25-1.211-3.174-.866-1.096-1.905-1.616-3.116-1.616h-2.482c-.461
0-.865.173-1.212.462-.346.346-.461.75-.461 1.212v12.291c0 .462.23.75.692.75h6.348c2.597 0 4.616-.75
6.001-2.135 1.212-1.27 1.847-3 2.02-5.251 0-.23.115-.462.346-.635a.93.93 0 0 1
.635-.288m26.995-6.06q1.904 2.251 1.904 5.886c0 2.078-.462 3.982-1.443 5.656s-2.366 3-4.27
3.981c-1.904 1.039-4.213 1.5-6.925 1.5-1.673
0-3.52-.23-5.482-.75-2.25-.577-3.75-.865-4.558-.865-.347 0-.75 0-1.212.058h-.058c-.23.057-.404
0-.577-.174s-.23-.346-.23-.577c.057-.865.115-2.02.115-3.462 0-1.558-.058-3-.116-4.328
0-.461-.058-.865-.115-1.212 0-.23.057-.461.23-.634.116-.174.347-.289.578-.347.23 0
.404.058.577.173.173.174.288.347.346.578.462 2.943 1.5 5.25 3.174 6.867 1.789 1.73 4.04 2.596 6.694
2.596 1.962 0 3.52-.577 4.674-1.616q1.73-1.644
1.73-4.327c0-2.713-1.846-4.732-5.539-6.175l-5.655-2.366c-4.443-1.846-6.636-4.847-6.636-9.002
0-1.847.461-3.578 1.327-5.136.923-1.5 2.25-2.77 4.04-3.693 1.73-.923 3.923-1.385 6.462-1.385 1.27 0
2.366.116 3.232.289.923.173 1.789.461 2.712.75.866.288 1.5.52 1.904.635q.953.346
1.732.346h.75c.23-.058.404 0 .577.173.115.173.23.346.23.577-.057.866-.115 2.02-.115 3.405 0 1.154 0
1.962.058 2.481 0 .115 0 .23.058.346 0 .289-.058.52-.231.75-.173.174-.346.289-.635.289h-.058c-.23
0-.404-.058-.577-.23s-.23-.347-.288-.578c-.116-2.02-.981-3.693-2.424-5.02-1.616-1.5-3.635-2.25-6.001-2.25q-2.684
0-4.501 1.384c-.981.808-1.558 1.789-1.79 3.059-.23 1.384.116 2.654 1.097 3.693.808.865 2.078 1.673
3.809 2.366l4.905 2.077c3.058 1.327 5.193 2.712 6.52 4.213m27.168-18.235h1.732c.288 0
.519.057.692.23.173.231.289.462.289.693v7.04c0 .288-.058.52-.289.692a.96.96 0 0 1-.692.289c-.231
0-.462-.116-.635-.289s-.289-.404-.346-.634c-.116-1.905-.635-3.347-1.616-4.328-1.097-1.097-2.886-1.674-5.482-1.674h-1.154c-.347
0-.577.231-.693.635v28.737c0 .808.404 1.27 1.154
1.27l2.078-.058c.288-.058.519.058.692.231q.346.346.346.692v.174a.96.96 0 0
1-.288.692c-.231.173-.462.289-.693.289H347.84c-.289
0-.52-.116-.693-.289s-.288-.404-.288-.692v-.174c0-.23.115-.461.288-.692.23-.173.462-.289.75-.289l2.078.116c.346
0
.634-.173.865-.462.173-.288.289-.635.289-.98V21.231c0-.173-.116-.347-.231-.462-.115-.173-.289-.23-.52-.23h-1.038c-2.54
0-4.386.576-5.482 1.673-.981.98-1.558 2.423-1.674 4.328 0
.23-.115.461-.288.634s-.404.289-.693.289h-.057c-.231
0-.462-.116-.635-.289-.23-.173-.289-.404-.289-.692v-7.04c0-.289.058-.52.289-.693a.96.96 0 0 1
.692-.288c.52.058 1.097.058 1.79.058z"
        fill="#233c51" />
</svg>
   -->
<svg width="250" height="100" viewBox="0 0 250 100" fill="none" xmlns="http://www.w3.org/2000/svg">
    <path
        d="M0 0H27.307V36.4964L24.4821 39.4161L22.1281 43.4307L21.1864 46.7153V52.9197L23.0697 58.0292L26.3653 62.4088L27.307 63.1387V100H0V0Z"
        fill="#1F8A70" />
    <path d="M69.6798 70.438H96.9868V100H69.6798V70.438Z" fill="#1F8A70" />
    <path d="M69.6798 0H96.9868V29.1971H69.6798V0Z" fill="#1F8A70" />
    <path
        d="M125.706 43.7956H134.652L138.889 44.8905L141.243 47.0803L141.714 47.8102V54.0146L140.301 56.2044L136.535 58.0292L134.181 58.3942H126.648L122.881 58.0292V44.1606L125.706 43.7956Z"
        fill="#3D606F" />
    <path
        d="M77.6836 43.7956H87.0998L90.3955 44.8905L91.8079 45.9854L92.2787 47.4453V50L90.8663 52.5547L89.9247 52.9197L90.8663 55.1095L92.2787 56.5693V58.0292H88.0414L84.7458 54.3796V53.6496H79.5669L79.096 58.0292H74.3879V44.1606L77.6836 43.7956Z"
        fill="#3D606F" />
    <path
        d="M99.3409 44.1606H116.29V47.4453H104.049V49.635H113.465V52.9197H104.049V54.7445H116.29V58.0292H99.3409V44.1606Z"
        fill="#3D606F" />
    <path
        d="M185.028 44.1606H201.977V47.0803L201.507 47.4453H189.736V49.635H199.153V52.9197H189.736V54.7445H201.977V57.6642L201.507 58.0292H185.028V44.1606Z"
        fill="#3D606F" />
    <path
        d="M159.134 44.1606H163.842L169.021 48.9051L172.787 52.5547L173.258 44.1606H177.966V57.6642L177.495 58.0292H172.787L169.021 54.3796L164.313 49.635L163.842 58.0292H159.134V44.1606Z"
        fill="#3C616F" />
    <path
        d="M214.218 43.7956H221.751L225.047 44.5255V47.8102L221.281 47.4453H214.689L213.748 47.8102V48.9051L214.689 49.2701L222.222 50L224.576 51.0949L225.989 52.9197L225.518 55.8394L223.164 57.6642L219.868 58.3942H212.806L208.569 57.6642V54.3796L213.277 54.7445H219.868L220.81 54.3796L221.281 53.2847L214.689 52.9197L210.452 51.8248L208.569 50V47.0803L209.981 45.2555L212.335 44.1606L214.218 43.7956Z"
        fill="#3D606F" />
    <path
        d="M36.2524 44.1606H40.4896V49.635H49.9058V44.1606H54.6139V58.0292H49.9058V52.9197H40.4896V58.0292H36.2524V44.1606Z"
        fill="#3D606F" />
    <path
        d="M231.638 44.1606H250V47.4453H243.409V57.6642L242.938 58.0292H238.701V47.4453H231.638V44.1606Z"
        fill="#3C616F" />
    <path
        d="M127.589 47.0803H134.181L136.535 48.1752L137.006 48.5401V53.6496L135.593 54.7445L134.181 55.1095H127.589V47.0803Z"
        fill="white" />
    <path d="M62.6177 44.1606H66.855V58.0292H62.6177V44.1606Z" fill="#3E606F" />
    <path d="M79.096 47.0803H86.629L87.5706 47.8102V49.635L86.1582 50.365H79.096V47.0803Z"
        fill="white" />
</svg>
    