<svg width="325" height="85" viewBox="0 0 325 85" fill="none" xmlns="http://www.w3.org/2000/svg">
<path d="M0.0823529 0H22.5647V1.64883L22.3176 2.10684L21.5765 2.65645L21.0824 3.29766L20.5882 4.39688L20.3412 5.4045L20.0941 8.24415L20.0118 42.6864L20.2588 42.5948H43.1529L45.8706 42.5032L45.9529 20.4272L46.0353 13.1906V9.89299L45.9529 7.41974L45.7882 5.86251L45.4588 4.30528L44.8824 3.02286L44.3059 2.47325L43.6471 1.92364L43.4824 1.74043V0.916017L43.5647 0H65.8824V1.92364L64.3176 2.56485L63.3294 3.29766L62.5882 4.21368L61.9294 5.67931L61.5176 7.41974L61.3529 9.16017L61.2706 11.1754V76.2126L61.5176 78.1363L62.1765 79.6019L62.8353 80.3347L63.9059 81.0675L65.7176 81.8919L65.9647 82.2583V83.9072L60.9412 83.9988H44.3882L43.5647 83.9072L43.4824 83.8156V82.4416L43.7294 81.8919L44.5529 81.2507L45.2118 80.4263L45.6235 79.3271L45.8706 77.6783L45.9529 76.579L46.0353 70.4417V44.9764L20.0118 44.8848L20.0941 76.6706L20.2588 78.5943L20.5059 79.6935L20.9176 80.5179L21.3294 81.0675L22.3176 81.8919L22.5647 82.1667L22.6471 83.4492L22.5647 83.9072L18.2 83.9988H3.37647L0.0823529 83.9072L0 83.8156V82.6248L0.0823529 81.9835L0.576471 81.7087L1.89412 81.2507L2.88235 80.6095L3.54118 79.9683H3.70588L3.87059 79.6019L4.2 79.0523L4.52941 78.1363L4.77647 76.4874L4.85882 74.747V60.0907L4.77647 10.0762L4.52941 7.41974L4.2 5.86251L3.78824 4.76329L3.21176 3.84727L2.55294 3.11446L1.23529 2.38164L0 1.92364V0.916017L0.0823529 0Z" fill="#276D59"/>
<path d="M80.2118 0H106.729L107.635 1.28242L108.706 2.74805L109.612 4.03048L110.682 5.4045L111.506 6.59532L112.247 7.60294L113.153 8.79377L113.976 9.98459L114.882 11.1754L115.624 12.183L116.529 13.4655L117.435 14.6563L118.506 16.1219L119.412 17.4043L120.4 18.6868L121.306 19.9692L122.047 20.9768L122.953 22.1676L123.859 23.45L124.6 24.4577L125.506 25.6485L126.576 27.2057L127.647 28.5797L128.553 29.8622L129.706 31.4194L130.612 32.6102L131.435 33.801L132.341 34.9919L133.247 36.2743L134.4 37.8315L135.306 39.0223L136.212 40.3048L136.953 41.3124L137.859 42.5032L138.765 43.7856L139.506 44.7932L140.412 45.9841L141.235 47.1749L142.141 48.3657L142.882 49.3733L143.788 50.6558L144.694 51.8466L145.6 53.129L146.506 54.3198L147.412 55.6022L148.318 56.7931L148.976 57.7091L149.882 58.8999L150.788 60.1823L151.859 61.7396L151.941 62.0144L151.859 83.9988H146.506L146.012 83.8156L144.859 82.1667L143.788 80.7011L143.047 79.6935L141.4 77.4035L140.329 75.9378L139.424 74.6554L138.682 73.6478L137.612 72.1822L136.706 70.8997L135.553 69.3425L134.729 68.1517L133.576 66.5945L132.671 65.312L131.518 63.7548L130.529 62.3808L129.624 61.0984L128.718 59.9075L127.894 58.7167L126.741 57.1595L125.835 55.8771L125.094 54.8694L124.024 53.4038L123.118 52.1214L121.965 50.5642L121.141 49.3733L120.235 48.1825L119.329 46.9001L118.259 45.4345L117.353 44.152L116.282 42.6864L115.376 41.404L114.553 40.3048L113.647 39.0223L112.741 37.8315L111.918 36.6407L110.765 35.0835L109.859 33.801L109.118 32.7934L108.047 31.3278L107.141 30.0454L105.988 28.4881L105.082 27.2057L104.341 26.1981L103.271 24.7325L102.447 23.5416L101.541 22.3508L100.471 20.7936L99.5647 19.6028L98.6588 18.3203L97.5882 16.8547L96.6824 15.5723L95.6118 14.1067L94.7059 12.8242L93.8 11.6334L92.9765 10.4426L91.9882 9.16017L91.0824 8.06095L90.5059 7.32814L89.0235 5.67931L87.8706 4.67169L86.7176 3.75567L85.1529 2.83965L83.9176 2.38164L83.0118 2.19844L80.2941 2.01524L80.2118 1.92364V0Z" fill="#266C58"/>
<path d="M97.1765 53.5882H98.9882L99.4 58.9927L99.8941 62.84L100.471 65.9545L101.129 68.5193L101.871 70.901L102.694 73.0078L103.518 74.7482L104.671 76.6719L105.659 77.9543L106.4 78.7787L107.471 79.6947L108.541 80.4275L109.529 80.9771L110.765 81.4352L113.071 81.8932L113.812 82.0764L113.894 82.5344L113.812 83.9084L103.188 84H91.2471L81.0353 83.9084V81.9848L83.1765 81.71L84.8235 81.3436L86.1412 80.7939L87.4588 80.0611L88.3647 79.4199L89.4353 78.5039L90.4235 77.4963L91.1647 76.5803L92.2353 74.9314L92.8941 73.7406L93.8824 71.6338L94.6235 69.5269L95.3647 67.0537L95.9412 64.672L96.5176 61.466L96.8471 58.9927L97.0941 55.9699L97.1765 53.5882Z" fill="#276D59"/>
<path d="M135.306 0H168V1.92364L167.835 2.01524L166.353 2.10684L164.541 2.47325L162.812 3.11446L161.494 3.84727L160.259 4.76329L159.106 5.86251L158.282 6.77853L157.212 8.33576L156.471 9.61818L155.729 11.0838L154.906 13.0074L154.082 15.4807L153.424 17.9539L152.929 20.244L152.518 22.7172L152.024 27.5721L151.859 30.137L151.776 30.3202H150.294L150.129 30.2286L150.047 29.9538L149.882 26.5645L149.471 22.7172L149.059 20.0608L148.565 17.5875L147.824 14.7479L147.247 12.9158L146.424 10.809L145.6 9.06857L144.612 7.41974L143.953 6.50372L143.212 5.58771L142.388 4.76329L141.235 3.84727L139.835 3.02286L138.106 2.38164L137.282 2.19844L135.388 2.01524L135.306 1.92364V0Z" fill="#276C58"/>
<path d="M71.8118 0H74.2L74.2824 0.0916017L74.2 82.6248H71.8941L71.8118 82.35V0Z" fill="#296E5A"/>
<path d="M203.99 28V26.5218C205.026 26.4712 205.784 26.3702 206.264 26.2185C206.769 26.0669 207.11 25.7637 207.287 25.3089C207.464 24.854 207.552 24.1718 207.552 23.2621V5.90242C207.552 4.96747 207.464 4.28522 207.287 3.85565C207.135 3.42608 206.807 3.12285 206.302 2.94597C205.796 2.76909 205.026 2.66801 203.99 2.64274V1.16452C204.722 1.18979 205.683 1.21505 206.87 1.24032C208.083 1.26559 209.422 1.27823 210.888 1.27823C212.48 1.27823 213.882 1.26559 215.095 1.24032C216.308 1.21505 217.256 1.18979 217.938 1.16452V2.64274C216.801 2.66801 215.954 2.76909 215.398 2.94597C214.868 3.09758 214.514 3.40081 214.337 3.85565C214.16 4.28522 214.072 4.96747 214.072 5.90242V23.2621C214.072 24.1718 214.16 24.854 214.337 25.3089C214.514 25.7384 214.868 26.0417 215.398 26.2185C215.954 26.3702 216.801 26.4712 217.938 26.5218V28C217.256 27.9495 216.308 27.9242 215.095 27.9242C213.882 27.8989 212.48 27.8863 210.888 27.8863C209.422 27.8863 208.083 27.8989 206.87 27.9242C205.683 27.9242 204.722 27.9495 203.99 28ZM186.516 28V26.5218C187.653 26.4712 188.487 26.3702 189.018 26.2185C189.574 26.0669 189.94 25.7637 190.117 25.3089C190.294 24.854 190.382 24.1718 190.382 23.2621V5.90242C190.382 4.96747 190.294 4.28522 190.117 3.85565C189.94 3.42608 189.574 3.12285 189.018 2.94597C188.487 2.76909 187.653 2.66801 186.516 2.64274V1.16452C187.224 1.18979 188.209 1.21505 189.473 1.24032C190.736 1.26559 192.176 1.27823 193.794 1.27823C195.209 1.27823 196.497 1.26559 197.66 1.24032C198.822 1.21505 199.744 1.18979 200.427 1.16452V2.64274C199.416 2.66801 198.658 2.76909 198.152 2.94597C197.647 3.09758 197.306 3.40081 197.129 3.85565C196.977 4.28522 196.902 4.96747 196.902 5.90242V23.2621C196.902 24.1718 196.977 24.854 197.129 25.3089C197.306 25.7384 197.647 26.0417 198.152 26.2185C198.658 26.3702 199.416 26.4712 200.427 26.5218V28C199.744 27.9495 198.809 27.9242 197.622 27.9242C196.434 27.8989 195.12 27.8863 193.68 27.8863C192.063 27.8863 190.635 27.8989 189.397 27.9242C188.184 27.9242 187.224 27.9495 186.516 28ZM194.248 15.2645V13.7863H210.206V15.2645H194.248Z" fill="#3A3A3A"/>
<path d="M220.986 28V26.5218C222.123 26.4712 222.957 26.3702 223.487 26.2185C224.043 26.0669 224.41 25.7637 224.587 25.3089C224.764 24.854 224.852 24.1718 224.852 23.2621V5.90242C224.852 4.96747 224.764 4.28522 224.587 3.85565C224.41 3.40081 224.043 3.09758 223.487 2.94597C222.957 2.76909 222.123 2.66801 220.986 2.64274V1.16452C221.693 1.18979 222.666 1.21505 223.904 1.24032C225.168 1.26559 226.621 1.27823 228.263 1.27823C229.779 1.27823 231.144 1.26559 232.357 1.24032C233.57 1.21505 234.53 1.18979 235.237 1.16452V2.64274C234.1 2.66801 233.254 2.76909 232.698 2.94597C232.167 3.09758 231.814 3.40081 231.637 3.85565C231.46 4.28522 231.371 4.96747 231.371 5.90242V23.2621C231.371 24.1718 231.46 24.854 231.637 25.3089C231.814 25.7384 232.18 26.0417 232.736 26.2185C233.292 26.3702 234.126 26.4712 235.237 26.5218V28C234.53 27.9495 233.57 27.9242 232.357 27.9242C231.144 27.8989 229.779 27.8863 228.263 27.8863C226.621 27.8863 225.168 27.8989 223.904 27.9242C222.666 27.9242 221.693 27.9495 220.986 28Z" fill="#3A3A3A"/>
<path d="M238.29 28V26.5218C239.427 26.4712 240.261 26.3702 240.791 26.2185C241.347 26.0417 241.713 25.7384 241.89 25.3089C242.067 24.854 242.156 24.1718 242.156 23.2621V5.90242C242.156 4.99274 242.055 4.32312 241.852 3.89355C241.676 3.43871 241.309 3.12285 240.753 2.94597C240.223 2.76909 239.401 2.66801 238.29 2.64274V1.16452C238.719 1.18979 239.477 1.21505 240.564 1.24032C241.676 1.24032 243.027 1.24032 244.619 1.24032C245.554 1.24032 246.376 1.24032 247.083 1.24032C247.816 1.24032 248.448 1.24032 248.978 1.24032C249.534 1.21505 250.027 1.20242 250.456 1.20242C250.886 1.17715 251.278 1.16452 251.632 1.16452C255.321 1.16452 258.075 1.72043 259.894 2.83226C261.739 3.94409 262.661 5.61183 262.661 7.83548C262.661 9.37688 262.194 10.6909 261.259 11.7774C260.349 12.8387 259.01 13.6599 257.241 14.2411C255.498 14.797 253.35 15.075 250.798 15.075H245.757V14.1653H250.873C252.743 14.1653 254.133 13.6726 255.043 12.6871C255.952 11.7016 256.407 10.2108 256.407 8.21452C256.407 6.31936 255.99 4.91694 255.156 4.00726C254.323 3.09758 253.047 2.64274 251.328 2.64274H248.675V23.2621C248.675 24.1465 248.763 24.8161 248.94 25.271C249.143 25.7258 249.509 26.0417 250.04 26.2185C250.595 26.3702 251.429 26.4712 252.541 26.5218V28C251.227 27.9242 248.877 27.8863 245.491 27.8863C241.979 27.8863 239.578 27.9242 238.29 28ZM261.6 28.5306C259.806 28.5306 258.467 28.139 257.582 27.3556C256.723 26.5723 256.117 25.2331 255.763 23.3379L255.043 19.5097C254.841 18.4989 254.575 17.7156 254.247 17.1597C253.944 16.6038 253.514 16.2121 252.958 15.9847C252.427 15.732 251.707 15.6056 250.798 15.6056H246.06V14.6202H250.494C253.021 14.6202 255.055 14.8223 256.597 15.2266C258.164 15.6056 259.364 16.2626 260.198 17.1976C261.031 18.1325 261.651 19.4212 262.055 21.0637L262.548 23.1863C262.8 24.1718 263.078 24.8667 263.382 25.271C263.71 25.65 264.152 25.8395 264.708 25.8395C264.986 25.8395 265.226 25.8016 265.428 25.7258C265.656 25.6247 265.883 25.4605 266.111 25.2331L266.793 26.3702C266.111 27.1282 265.352 27.6715 264.519 28C263.685 28.3538 262.712 28.5306 261.6 28.5306Z" fill="#3A3A3A"/>
<path d="M267.894 28V26.5218C269.031 26.4712 269.865 26.3702 270.396 26.2185C270.952 26.0669 271.318 25.7637 271.495 25.3089C271.672 24.854 271.76 24.1718 271.76 23.2621V5.90242C271.76 4.99274 271.672 4.32312 271.495 3.89355C271.318 3.43871 270.952 3.12285 270.396 2.94597C269.865 2.76909 269.031 2.66801 267.894 2.64274V1.16452C269.259 1.18979 271.053 1.21505 273.276 1.24032C275.5 1.26559 278.09 1.27823 281.046 1.27823C282.234 1.27823 283.346 1.27823 284.382 1.27823C285.418 1.25296 286.378 1.24032 287.263 1.24032C288.147 1.21505 288.943 1.18979 289.651 1.16452C289.651 2.63011 289.701 4.08307 289.802 5.52339C289.903 6.93844 290.055 8.34086 290.257 9.73065H288.741C288.387 8.08817 287.907 6.76156 287.301 5.75081C286.719 4.71479 285.999 3.95672 285.14 3.47661C284.306 2.99651 283.295 2.75645 282.108 2.75645H278.28V23.8306C278.28 24.5634 278.343 25.1194 278.469 25.4984C278.595 25.8774 278.835 26.1301 279.189 26.2565C279.568 26.3575 280.112 26.4081 280.819 26.4081H281.577C282.942 26.4081 284.167 26.1048 285.254 25.4984C286.34 24.8919 287.301 23.957 288.134 22.6935C288.968 21.4048 289.714 19.775 290.371 17.804H291.887C291.71 19.6739 291.571 21.4554 291.47 23.1484C291.394 24.8161 291.369 26.4333 291.394 28C290.131 27.9495 288.64 27.9242 286.921 27.9242C285.203 27.8989 283.169 27.8863 280.819 27.8863C277.913 27.8863 275.374 27.8989 273.201 27.9242C271.027 27.9242 269.259 27.9495 267.894 28ZM277.067 15.2266V13.7863H284.041V15.2266H277.067ZM284.609 20.1919C284.483 19.0548 284.23 18.1199 283.851 17.3871C283.498 16.6543 283.005 16.111 282.373 15.7573C281.767 15.4035 281.009 15.2266 280.099 15.2266V13.7863C281.312 13.7863 282.285 13.3694 283.017 12.5355C283.776 11.6763 284.268 10.4382 284.496 8.82097H285.936C285.835 10.3118 285.784 11.4616 285.784 12.2702C285.81 13.0788 285.822 13.8242 285.822 14.5065C285.822 15.0118 285.822 15.5298 285.822 16.0605C285.848 16.5659 285.873 17.147 285.898 17.804C285.949 18.461 285.999 19.257 286.05 20.1919H284.609Z" fill="#3A3A3A"/>
<path d="M295.617 28V26.5218C296.754 26.4712 297.588 26.3702 298.118 26.2185C298.674 26.0669 299.041 25.7637 299.218 25.3089C299.394 24.854 299.483 24.1718 299.483 23.2621V5.90242C299.483 4.99274 299.394 4.32312 299.218 3.89355C299.041 3.43871 298.674 3.12285 298.118 2.94597C297.588 2.76909 296.754 2.66801 295.617 2.64274V1.16452C296.4 1.18979 297.36 1.21505 298.497 1.24032C299.66 1.24032 301.075 1.24032 302.743 1.24032C303.45 1.24032 304.183 1.24032 304.941 1.24032C305.699 1.21505 306.406 1.20242 307.063 1.20242C307.72 1.17715 308.264 1.16452 308.693 1.16452C314 1.16452 318.005 2.25108 320.709 4.42419C323.438 6.59731 324.802 9.78118 324.802 13.9758C324.802 16.907 324.158 19.4212 322.869 21.5185C321.58 23.5906 319.723 25.1952 317.297 26.3323C314.897 27.4441 312.016 28 308.655 28C307.998 28 307.202 27.9874 306.268 27.9621C305.333 27.9116 304.17 27.8863 302.78 27.8863C301.214 27.8863 299.786 27.8989 298.497 27.9242C297.209 27.9495 296.248 27.9747 295.617 28ZM308.997 26.5597C312.105 26.5597 314.379 25.5995 315.819 23.679C317.285 21.7333 318.018 18.6884 318.018 14.5444C318.018 10.375 317.297 7.34274 315.857 5.44758C314.417 3.55242 312.105 2.60484 308.921 2.60484H306.002V23.3379C306.002 24.2223 306.078 24.9046 306.23 25.3847C306.406 25.8395 306.71 26.1554 307.139 26.3323C307.569 26.4839 308.188 26.5597 308.997 26.5597Z" fill="#3A3A3A"/>
<path d="M209.334 84.2653L192.391 61.1065H191.898V77.746C191.898 78.9589 191.987 79.8938 192.164 80.5508C192.366 81.2078 192.783 81.6879 193.415 81.9911C194.046 82.2691 195.032 82.446 196.371 82.5218V84C195.866 83.9495 195.145 83.9242 194.21 83.9242C193.301 83.8989 192.341 83.8863 191.33 83.8863C190.319 83.8863 189.397 83.8989 188.563 83.9242C187.729 83.9242 187.047 83.9495 186.516 84V82.5218C187.628 82.446 188.449 82.2691 188.98 81.9911C189.536 81.6879 189.902 81.2204 190.079 80.5887C190.281 79.957 190.382 79.0978 190.382 78.0113V61.9024C190.382 60.9675 190.294 60.2852 190.117 59.8556C189.94 59.4261 189.574 59.1228 189.018 58.946C188.487 58.7691 187.653 58.668 186.516 58.6427V57.1645C187.097 57.1898 187.855 57.2151 188.79 57.2403C189.725 57.2656 190.736 57.2782 191.823 57.2782C192.934 57.2782 193.97 57.2656 194.931 57.2403C195.891 57.2151 196.737 57.1898 197.47 57.1645L208.955 73.0081H209.448V63.4185C209.448 62.1804 209.346 61.2454 209.144 60.6137C208.967 59.9567 208.563 59.4766 207.931 59.1734C207.3 58.8702 206.327 58.6933 205.013 58.6427V57.1645C205.518 57.1898 206.226 57.2151 207.135 57.2403C208.07 57.2656 209.031 57.2782 210.016 57.2782C211.027 57.2782 211.949 57.2656 212.783 57.2403C213.642 57.2151 214.324 57.1898 214.83 57.1645V58.6427C213.743 58.7185 212.922 58.8954 212.366 59.1734C211.81 59.4513 211.444 59.9062 211.267 60.5379C211.09 61.1696 211.002 62.0414 211.002 63.1532V84.2653H209.334Z" fill="#3A3A3A"/>
<path d="M217.635 84V82.5218C218.772 82.4712 219.606 82.3702 220.137 82.2186C220.693 82.0669 221.059 81.7637 221.236 81.3089C221.413 80.854 221.501 80.1718 221.501 79.2621V61.9024C221.501 60.9927 221.413 60.3231 221.236 59.8935C221.059 59.4387 220.693 59.1228 220.137 58.946C219.606 58.7691 218.772 58.668 217.635 58.6427V57.1645C219 57.1898 220.794 57.2151 223.018 57.2403C225.241 57.2656 227.831 57.2782 230.788 57.2782C231.975 57.2782 233.087 57.2782 234.123 57.2782C235.159 57.253 236.119 57.2403 237.004 57.2403C237.888 57.2151 238.684 57.1898 239.392 57.1645C239.392 58.6301 239.442 60.0831 239.543 61.5234C239.644 62.9384 239.796 64.3409 239.998 65.7306H238.482C238.128 64.0882 237.648 62.7616 237.042 61.7508C236.461 60.7148 235.74 59.9567 234.881 59.4766C234.047 58.9965 233.037 58.7565 231.849 58.7565H228.021V79.8306C228.021 80.5634 228.084 81.1194 228.21 81.4984C228.337 81.8774 228.577 82.1301 228.93 82.2565C229.309 82.3575 229.853 82.4081 230.56 82.4081H231.318C232.683 82.4081 233.908 82.1048 234.995 81.4984C236.082 80.8919 237.042 79.957 237.876 78.6936C238.709 77.4048 239.455 75.775 240.112 73.804H241.628C241.451 75.6739 241.312 77.4554 241.211 79.1484C241.135 80.8161 241.11 82.4333 241.135 84C239.872 83.9495 238.381 83.9242 236.663 83.9242C234.944 83.8989 232.91 83.8863 230.56 83.8863C227.654 83.8863 225.115 83.8989 222.942 83.9242C220.769 83.9242 219 83.9495 217.635 84ZM226.808 71.2266V69.7863H233.782V71.2266H226.808ZM234.351 76.1919C234.224 75.0548 233.972 74.1199 233.593 73.3871C233.239 72.6543 232.746 72.111 232.114 71.7573C231.508 71.4035 230.75 71.2266 229.84 71.2266V69.7863C231.053 69.7863 232.026 69.3694 232.759 68.5355C233.517 67.6763 234.009 66.4382 234.237 64.821H235.677C235.576 66.3118 235.526 67.4616 235.526 68.2702C235.551 69.0788 235.563 69.8242 235.563 70.5065C235.563 71.0118 235.563 71.5298 235.563 72.0605C235.589 72.5659 235.614 73.147 235.639 73.804C235.69 74.461 235.74 75.257 235.791 76.1919H234.351Z" fill="#3A3A3A"/>
<path d="M256.899 84.5306C255.408 84.5306 254.144 84.379 253.108 84.0758C252.097 83.7726 251.264 83.482 250.607 83.204C249.975 82.9261 249.444 82.7871 249.015 82.7871C248.711 82.7871 248.459 82.9134 248.257 83.1661C248.08 83.3935 247.941 83.7852 247.84 84.3411H246.324C246.374 83.6841 246.399 82.9134 246.399 82.029C246.425 81.1446 246.437 80.0328 246.437 78.6936C246.463 77.329 246.475 75.6108 246.475 73.5387H247.991C248.32 76.571 249.204 78.8957 250.645 80.5129C252.085 82.1048 253.98 82.9008 256.33 82.9008C257.871 82.9008 259.072 82.547 259.931 81.8395C260.815 81.1067 261.257 80.1086 261.257 78.8452C261.257 78.0113 261.03 77.2659 260.575 76.6089C260.146 75.9519 259.425 75.3328 258.415 74.7516C257.429 74.1452 256.128 73.5387 254.511 72.9323C252.691 72.2247 251.2 71.454 250.038 70.6202C248.876 69.7863 248.017 68.8513 247.461 67.8153C246.905 66.754 246.627 65.5664 246.627 64.2524C246.627 62.711 246.993 61.3718 247.726 60.2347C248.459 59.0976 249.482 58.2132 250.796 57.5815C252.135 56.9497 253.702 56.6339 255.496 56.6339C256.886 56.6339 258.036 56.7855 258.945 57.0887C259.855 57.3919 260.6 57.6952 261.182 57.9984C261.788 58.2763 262.306 58.4153 262.736 58.4153C263.064 58.4153 263.317 58.289 263.494 58.0363C263.671 57.7836 263.81 57.3793 263.911 56.8234H265.427C265.376 57.4298 265.338 58.0868 265.313 58.7944C265.288 59.5019 265.263 60.4242 265.237 61.5613C265.237 62.6984 265.237 64.1892 265.237 66.0339H263.721C263.393 63.6586 262.534 61.7634 261.144 60.3484C259.779 58.9333 258.099 58.2258 256.103 58.2258C254.789 58.2258 253.753 58.5543 252.995 59.2113C252.262 59.843 251.895 60.7274 251.895 61.8645C251.895 62.6479 252.11 63.3554 252.54 63.9871C252.969 64.5936 253.702 65.1874 254.738 65.7685C255.774 66.3245 257.189 66.9562 258.983 67.6637C261.712 68.6997 263.683 69.9253 264.896 71.3403C266.134 72.7554 266.753 74.461 266.753 76.4573C266.753 78.9589 265.869 80.9298 264.1 82.3702C262.331 83.8105 259.931 84.5306 256.899 84.5306Z" fill="#3A3A3A"/>
<path d="M273.652 84V82.5218C275.118 82.4965 276.217 82.4081 276.95 82.2565C277.682 82.0796 278.175 81.7511 278.428 81.271C278.681 80.7656 278.807 80.0075 278.807 78.9968V58.7565H277.973C276.836 58.7565 275.838 59.0344 274.979 59.5903C274.145 60.1462 273.425 61.0306 272.818 62.2435C272.212 63.4565 271.681 65.0231 271.226 66.9436H269.672C269.9 65.3263 270.064 63.7091 270.165 62.0919C270.266 60.4495 270.329 58.807 270.355 57.1645C271.492 57.1898 272.742 57.2151 274.107 57.2403C275.497 57.2656 276.887 57.2782 278.276 57.2782C279.666 57.2782 280.942 57.2782 282.105 57.2782C283.216 57.2782 284.467 57.2782 285.857 57.2782C287.247 57.2782 288.637 57.2656 290.026 57.2403C291.416 57.2151 292.68 57.1898 293.817 57.1645C293.817 58.8323 293.867 60.4747 293.968 62.0919C294.095 63.7091 294.259 65.3263 294.461 66.9436H292.945C292.591 65.5032 292.199 64.2651 291.77 63.229C291.34 62.193 290.848 61.3465 290.292 60.6895C289.761 60.0325 289.155 59.5524 288.472 59.2492C287.79 58.9207 287.019 58.7565 286.16 58.7565H285.326V78.9968C285.326 80.0075 285.453 80.7656 285.705 81.271C285.958 81.7511 286.451 82.0796 287.184 82.2565C287.942 82.4081 289.053 82.4965 290.519 82.5218V84C289.609 83.9747 288.396 83.9495 286.88 83.9242C285.389 83.8989 283.823 83.8863 282.18 83.8863C280.437 83.8863 278.807 83.8989 277.291 83.9242C275.775 83.9495 274.562 83.9747 273.652 84Z" fill="#3A3A3A"/>
</svg>
