<svg width="250" height="100" viewBox="0 0 250 100" fill="none" xmlns="http://www.w3.org/2000/svg">
    <path
        d="M0 0h27.307v36.496l-2.825 2.92-2.354 4.015-.942 3.284v6.205l1.884 5.11 3.295 4.379.942.73V100H0zm69.68 70.438h27.307V100H69.68zM69.68 0h27.307v29.197H69.68z"
        fill="#1F8A70" />
    <path
        d="M125.706 43.796h8.946l4.237 1.095 2.354 2.19.471.73v6.204l-1.413 2.19-3.766 1.824-2.354.365h-7.533l-3.767-.365V44.161zm-48.022 0H87.1l3.296 1.095 1.412 1.094.47 1.46V50l-1.412 2.555-.941.365.941 2.19 1.413 1.46v1.46H88.04l-3.295-3.65v-.73h-5.18l-.47 4.38h-4.708V44.16zm21.656.364h16.95v3.285h-12.241v2.19h9.416v3.285h-9.416v1.825h12.241v3.284H99.34zm85.688 0h16.949v2.92l-.47.365h-11.771v2.19h9.417v3.285h-9.417v1.825h12.241v2.92l-.47.364h-16.479z"
        fill="#3D606F" />
    <path
        d="M159.134 44.16h4.708l5.179 4.745 3.766 3.65.471-8.394h4.708v13.503l-.471.365h-4.708l-3.766-3.65-4.708-4.744-.471 8.394h-4.708z"
        fill="#3C616F" />
    <path
        d="M214.218 43.796h7.533l3.296.73v3.284l-3.766-.365h-6.592l-.941.365v1.095l.941.365 7.533.73 2.354 1.095 1.413 1.825-.471 2.92-2.354 1.824-3.296.73h-7.062l-4.237-.73V54.38l4.708.364h6.591l.942-.364.471-1.095-6.592-.365-4.237-1.095L208.569 50v-2.92l1.412-1.825 2.354-1.094zm-177.966.364h4.238v5.475h9.416v-5.474h4.708v13.868h-4.708v-5.11H40.49v5.11h-4.238z"
        fill="#3D606F" />
    <path d="M231.638 44.16H250v3.285h-6.591v10.22l-.471.364h-4.237V47.445h-7.063z" fill="#3C616F" />
    <path d="M127.589 47.08h6.592l2.354 1.095.471.365v5.11l-1.413 1.095-1.412.364h-6.592z"
        fill="#fff" />
    <path d="M62.618 44.16h4.237v13.87h-4.237z" fill="#3E606F" />
    <path d="M79.096 47.08h7.533l.942.73v1.825l-1.413.73h-7.062z" fill="#fff" />
</svg>