<?xml version="1.0" standalone="no"?>
<!DOCTYPE svg PUBLIC "-//W3C//DTD SVG 20010904//EN"
 "http://www.w3.org/TR/2001/REC-SVG-20010904/DTD/svg10.dtd">
<svg version="1.0" xmlns="http://www.w3.org/2000/svg"
 width="400.000000pt" height="400.000000pt" viewBox="0 0 400.000000 400.000000"
 preserveAspectRatio="xMidYMid meet">

<g transform="translate(0.000000,400.000000) scale(0.100000,-0.100000)"
fill="#000000" stroke="none">
<path d="M937 863 c-47 -114 -89 -216 -93 -226 -6 -16 -2 -18 36 -15 40 3 44
6 55 38 l12 35 92 3 92 3 17 -41 c16 -36 20 -40 55 -40 23 0 37 5 37 13 -1 6
-40 106 -88 222 -71 171 -91 211 -108 213 -19 3 -31 -21 -107 -205z m142 -8
c17 -44 31 -85 31 -92 0 -9 -20 -13 -70 -13 -38 0 -70 4 -70 8 0 5 11 37 25
73 39 98 45 112 50 108 2 -3 18 -40 34 -84z"/>
<path d="M2220 840 c0 -187 1 -200 19 -210 11 -5 33 -10 50 -10 28 0 31 3 31
30 0 19 -5 30 -14 30 -23 0 -26 24 -26 196 l0 164 -30 0 -30 0 0 -200z"/>
<path d="M1290 775 l0 -155 35 0 35 0 0 108 c0 114 7 135 47 147 17 4 29 -1
48 -19 24 -24 25 -31 25 -131 l0 -105 30 0 30 0 0 130 c0 126 -1 132 -25 155
-19 20 -34 25 -73 25 -26 0 -54 -6 -61 -12 -11 -10 -14 -10 -18 0 -3 6 -20 12
-39 12 l-34 0 0 -155z"/>
<path d="M1642 914 c-12 -8 -29 -28 -37 -44 -18 -35 -20 -148 -3 -184 23 -53
94 -76 153 -52 37 16 37 16 31 -7 -3 -12 -6 -25 -6 -29 0 -15 -60 -38 -100
-38 l-41 0 17 -31 c15 -30 18 -31 64 -26 63 8 103 29 118 62 8 17 12 85 12
195 l0 170 -29 0 c-16 0 -31 -5 -33 -11 -3 -9 -9 -9 -25 0 -31 16 -95 14 -121
-5z m118 -52 c37 -30 40 -131 4 -166 -19 -20 -68 -21 -83 -2 -37 45 -31 141
12 171 28 19 40 19 67 -3z"/>
<path d="M1959 915 c-36 -19 -59 -72 -59 -134 0 -106 47 -161 137 -161 55 0
107 21 117 46 3 7 -4 20 -15 30 -18 16 -20 16 -39 -1 -42 -38 -130 -12 -130
37 0 16 9 18 100 18 97 0 100 1 100 23 -1 52 -20 103 -50 130 -25 22 -39 27
-83 27 -28 -1 -64 -7 -78 -15z m124 -67 c32 -38 23 -48 -48 -48 -58 0 -65 2
-65 19 0 11 12 29 27 40 30 24 58 20 86 -11z"/>
</g>
</svg>
