<svg version="1.1" id="Layer_1" xmlns="http://www.w3.org/2000/svg" xmlns:xlink="http://www.w3.org/1999/xlink" x="0px" y="0px" viewBox="-145.1 -37.5 370.2 106.7" style="enable-background:new -145.1 -37.5 370.2 106.7;" xml:space="preserve">
 <style type="text/css">
  .st0{fill:#FFFFFF;}
	.st1{fill:#FF3333;}
 </style>
 <title>
  logo/og/DBS-blk Copy
 </title>
 <desc>
  Created with Sketch.
 </desc>
 <g id="Page-1">
  <g id="Group-3-Copy" transform="translate(-24.000000, -66.000000)">
   <g id="logo_x2F_og_x2F_DBS-blk" transform="translate(24.000000, 66.000000)">
    <g>
     <g id="Logomark">
      <polygon id="Fill-1" class="st0" points="-127.6,51.5 -57.1,51.5 -57.1,-19.7 -127.6,-19.7 					">
      </polygon>
      <path class="st1" d="M-59.4,49.2l-25.6-21.7c0,0-3.5-3.4-7.4-3.4c-3.9,0-7.4,3.4-7.4,3.4l-25.6,21.7l-0.1-0.1l21.5-25.8
						c0,0,3.4-3.5,3.4-7.5c0-3.9-3.4-7.4-3.4-7.4l-21.5-25.9l0.1-0.1l25.6,21.7c0,0,3.5,3.4,7.4,3.4c3.9,0,7.4-3.4,7.4-3.4
						l25.6-21.7l0.1,0.1L-80.8,8.4c0,0-3.4,3.5-3.4,7.4c0,4,3.4,7.5,3.4,7.5l21.5,25.8L-59.4,49.2z M-47.4,15.9L-47.4,15.9
						c0-7,0.3-13.3,5.4-24.3c1.5-3.2,4.8-7.9-0.1-13.3c-3.9-4-8.4-3.3-11.4-1.6c1.7-3,2.4-7.6-1.6-11.6c-5.4-4.9-10-1.6-13.2-0.1
						c-10.9,5.2-17.1,5.5-24.1,5.5c-7,0-13.2-0.3-24.1-5.5c-3.2-1.5-7.8-4.8-13.2,0.1c-3.9,4-3.3,8.5-1.5,11.6
						c-3-1.8-7.5-2.4-11.4,1.6c-4.8,5.5-1.5,10.1-0.1,13.3c5.2,11,5.5,17.3,5.5,24.3c0,7-0.3,13.3-5.5,24.4
						c-1.5,3.2-4.8,7.9,0.1,13.3c3.9,4,8.4,3.3,11.4,1.6c-1.7,3.1-2.4,7.6,1.5,11.5c5.4,4.9,10,1.6,13.2,0.1
						c10.9-5.2,17.1-5.5,24.1-5.5c7,0,13.1,0.3,24.1,5.5c3.2,1.5,7.8,4.8,13.2-0.1c3.9-3.9,3.3-8.5,1.5-11.5c3,1.7,7.5,2.4,11.4-1.6
						c4.8-5.5,1.6-10.2,0.1-13.3C-47.1,29.2-47.4,22.9-47.4,15.9L-47.4,15.9z">
      </path>
     </g>
     <path id="DBS" d="M36.1,57.2c8.8-3.2,19.6-18.3,17.8-42.1C52.2-7.9,43.5-26,20.3-27.7c0,0-4.4-0.3-8.1-0.3
					c-3.9,0-4.8-0.2-5.1,4.1c-0.5,8-0.6,69.9-0.1,78.8c0.1,1.2,0.2,4.2,5.2,4.7C21.5,60.5,29.2,59.7,36.1,57.2z M27.1-31.6
					c19.6-0.1,45.4,13.5,45.3,47.4c-0.1,29.5-21.1,47.6-40.6,47.6l-49.4,0l0.1-1.1c2.8-0.5,5.9-2.3,6.4-4.1
					c1.6-7.1,1.3-72.1,0.3-82.8c-0.3-3.3-2.9-5.5-6.1-6l-0.1-1C-17.1-31.6,22.7-31.6,27.1-31.6z M135.4,40.1
					c0.4-20.4-14.4-25.8-29.8-26.7c-0.3,0-0.2-0.8,0-0.8c5-0.2,24.8-2.5,24-21.6c-0.8-18.6-14.8-19-19.9-19.1
					c-4.2-0.1-5.1-0.1-6.8,0c-3,0.1-3.7,0.4-3.7,3.6c0,0.4-0.7,33.6-1,56.9C98,45,98,54.7,98,54.7c0.1,2.3-0.2,4.7,5.4,4.9
					c5.8,0.3,13.4,0.5,18.6-0.6C126.9,58,135.1,54.5,135.4,40.1z M129.4,12.6c23,5.8,24.4,22.6,24.1,27.3
					c-1.1,21-18.7,23.4-25.8,23.4H73.3l0.1-1.1c3.9-0.5,6.9-2.7,6.9-9.7l0.3-72.4c0.1-7.9-2-10.3-6.3-10.8l-0.1-1h41.1
					c7.5,0,30.3-1.5,32.2,19.6C149.1,4.8,130.7,11.9,129.4,12.6z M218-31.3l0.9,0l0.3,16.9l-1,0c-1.7-6.9-8.2-13.4-21.4-14.1
					c-15.5-0.8-22.2,8.5-22.3,17.4c-0.1,11.8,9,14.2,22.4,17.5c6.3,1.6,29.8,4.7,27.9,31.3c-1.3,18.6-17.2,27.5-39.8,26.8
					c0,0-9.4-0.3-22.4-4c-2.4-0.7-3.1,0.1-4,1.9l-1.1,0.1l0-18.2l1,0.1c0.5,1.8,0.7,5.3,4,8.2c2.4,2.2,8.1,7.5,20.5,7.6
					c12.2,0.2,22.4-5,23.7-18.9c0.4-3.7,0-12.3-8.3-16.1c-6.4-3-24.4-5.1-33-12.7c0,0-10.3-7.2-8.7-20.8
					c2.3-19.1,18.1-23.9,32.3-24.2c0,0,12.7-0.1,22.8,2.5c0,0,2.5,0.7,4.5-0.1C217.4-30.5,217.8-31,218-31.3L218-31.3z">
     </path>
    </g>
   </g>
  </g>
 </g>
</svg>