<svg width="16" height="4" viewBox="0 0 16 4" fill="none" xmlns="http://www.w3.org/2000/svg">
<path d="M0.510498 0.981142H15.4894V3.90393H0.510498V0.981142Z" fill="#004C8F"/>
<path d="M3.00732 0.981142H15.4896V3.90393H3.00732V0.981142Z" fill="#004C8F"/>
<path d="M3.80103 3.13403V1.7511H4.18961V2.21783H4.55371V1.7511H4.94292V3.13403H4.55371V2.59748H4.18961V3.13403H3.80103Z" fill="white"/>
<path d="M5.55784 2.09472H5.6586C5.73111 2.09472 5.78415 2.10354 5.81805 2.12118C5.84316 2.13404 5.86356 2.15315 5.88145 2.18182C5.89777 2.21012 5.91096 2.24577 5.92069 2.29061C5.92947 2.33508 5.93418 2.38211 5.93418 2.43172C5.93418 2.51257 5.92477 2.5802 5.90436 2.63496C5.88459 2.68972 5.85603 2.72904 5.8193 2.75329C5.78258 2.77791 5.72797 2.78967 5.65577 2.78967L5.55784 2.79041V2.09472ZM5.70787 3.13403C5.79953 3.13403 5.87549 3.12521 5.93764 3.10574C6.0001 3.08699 6.05095 3.062 6.08987 3.03223C6.12942 3.00173 6.1652 2.96057 6.19816 2.90949C6.2308 2.85657 6.25936 2.79005 6.28164 2.70846C6.30456 2.62724 6.31554 2.53573 6.31554 2.43209C6.31554 2.27994 6.29075 2.15132 6.24053 2.044C6.18968 1.9389 6.12063 1.86283 6.03243 1.81799C5.94455 1.77316 5.83971 1.7511 5.71792 1.7511H5.17773V3.13403H5.70787Z" fill="white"/>
<path d="M6.49341 3.13403V1.7511H7.41496V2.09215H6.87696V2.31376H7.30729V2.64561H6.87696V3.13403H6.49341Z" fill="white"/>
<path d="M8.71636 2.27987H8.34943C8.34252 2.21115 8.32118 2.15676 8.28571 2.11781C8.24993 2.07959 8.20504 2.06084 8.1498 2.06084C8.08106 2.06084 8.02519 2.09208 7.98219 2.15382C7.93887 2.21629 7.91721 2.31736 7.91721 2.45628C7.91721 2.5533 7.92695 2.62606 7.94484 2.67567C7.96336 2.72676 7.98941 2.76351 8.02174 2.78813C8.05501 2.81275 8.0955 2.82415 8.14541 2.82415C8.20505 2.82415 8.25276 2.80651 8.2876 2.76608C8.32338 2.72823 8.34409 2.67164 8.351 2.59593H8.72452C8.71636 2.68193 8.7016 2.75396 8.68025 2.81276C8.65985 2.87119 8.62345 2.92925 8.57417 2.98769C8.52426 3.04686 8.46463 3.09243 8.39589 3.12403C8.32715 3.15601 8.24773 3.17108 8.1567 3.17108C8.06693 3.17108 7.98314 3.15601 7.90749 3.12514C7.83091 3.09354 7.76624 3.04869 7.71477 2.99246C7.66235 2.93403 7.62155 2.86862 7.59236 2.79475C7.5503 2.69074 7.53052 2.57646 7.53052 2.44893C7.53052 2.34235 7.54527 2.24128 7.57509 2.14867C7.60491 2.05679 7.64603 1.97851 7.69844 1.9153C7.75118 1.85246 7.80861 1.80542 7.87264 1.77382C7.95362 1.73339 8.04277 1.71392 8.14165 1.71392C8.22765 1.71392 8.30737 1.72861 8.3827 1.75837C8.45771 1.78814 8.51924 1.83151 8.56726 1.88921C8.61591 1.94691 8.65326 2.01306 8.67931 2.0884C8.69815 2.14095 8.71008 2.20453 8.71636 2.27987Z" fill="white"/>
<path d="M9.96081 2.06239C10.0157 2.06239 10.0512 2.06532 10.0688 2.0712C10.0914 2.07892 10.1102 2.09399 10.1237 2.11383C10.1375 2.13441 10.1447 2.15831 10.1447 2.18587C10.1447 2.22115 10.1328 2.25018 10.1099 2.27223C10.0854 2.29538 10.0437 2.30604 9.98372 2.30604H9.83745V2.06239H9.96081ZM10.0584 3.13403C10.1504 3.13403 10.215 3.12888 10.253 3.11933C10.2904 3.10904 10.329 3.09288 10.3682 3.07156C10.4065 3.04804 10.436 3.02599 10.4555 3.00174C10.4856 2.96903 10.5079 2.92933 10.5242 2.88155C10.5405 2.83341 10.5487 2.77902 10.5487 2.72059C10.5487 2.63716 10.5311 2.56844 10.4953 2.51257C10.4596 2.45635 10.4115 2.41923 10.351 2.39902C10.4536 2.32331 10.5048 2.22556 10.5048 2.10649C10.5048 1.98337 10.4596 1.88928 10.3701 1.82534C10.301 1.77609 10.1934 1.7511 10.0474 1.7511H9.46143V3.13403H10.0584ZM9.99596 2.55485C10.0729 2.55485 10.1228 2.56587 10.1479 2.58902C10.1711 2.61144 10.1837 2.64231 10.1837 2.68383C10.1837 2.72573 10.1711 2.75881 10.1457 2.78196C10.1215 2.80658 10.071 2.81687 9.99596 2.81687H9.83745V2.55485H9.99596Z" fill="white"/>
<path d="M11.4022 2.66914H11.1552L11.277 2.16602L11.4022 2.66914ZM11.0391 3.13403L11.084 2.95249H11.4707L11.5159 3.13403H11.9022L11.4785 1.7511H11.084L10.6599 3.13403H11.0391Z" fill="white"/>
<path d="M12.0654 3.13403V1.7511H12.4273L12.8357 2.49164V1.7511H13.208V3.13403H12.8382L12.4386 2.41188V3.13403H12.0654Z" fill="white"/>
<path d="M13.4668 3.13403V1.7511H13.8431V2.20718L14.1944 1.7511H14.6507L14.2179 2.27186L14.6956 3.13403H14.2305L13.9464 2.58314L13.8431 2.70258V3.13403H13.4668Z" fill="white"/>
<path d="M0.510498 0.981142H3.00677V3.90393H0.510498V0.981142Z" fill="#ED232A"/>
<path d="M0.94751 1.49274H2.57027V3.39276H0.94751V1.49274Z" fill="white"/>
<path d="M1.63379 0.981142H1.88332V3.90393H1.63379V0.981142Z" fill="white"/>
<path d="M0.510498 2.29677H3.00677V2.58893H0.510498V2.29677Z" fill="white"/>
<path d="M1.38428 2.00422H2.13319V2.8811H1.38428V2.00422Z" fill="#004C8F"/>
</svg>
