<svg width="16" height="5" viewBox="0 0 16 5" fill="none" xmlns="http://www.w3.org/2000/svg">
<path d="M1.70259 5.00003C1.69971 4.99696 1.69683 4.99389 1.69395 4.99081C1.63919 4.91707 1.29909 4.46232 0.950358 3.88159C0.846601 3.69723 0.77743 3.54974 0.791841 3.51287C0.826426 3.41455 1.43167 3.36231 1.61613 3.45142C1.67377 3.47907 1.67089 3.51287 1.67089 3.53438C1.67089 3.62349 1.66801 3.86315 1.66801 3.86315C1.66801 3.91231 1.70547 3.95226 1.75159 3.95226C1.7977 3.95226 1.83517 3.91231 1.83517 3.86315V3.26706C1.83517 3.21482 1.78329 3.20253 1.77176 3.19946C1.67377 3.19946 1.47779 3.19946 1.26451 3.19946C0.797605 3.19946 0.690966 3.22097 0.613149 3.16566C0.440221 3.04583 0.160655 2.23772 0.152009 1.78297C0.143363 1.14079 0.500746 0.584637 1.00224 0.311171C1.21263 0.197483 1.44897 0.13603 1.69971 0.13603C2.49806 0.129885 3.1523 0.768996 3.23876 1.59247C3.23876 1.59247 3.23876 1.59247 3.23876 1.59554C3.25606 1.79526 2.22714 1.83828 2.02251 1.7799C1.9908 1.77068 1.98216 1.73688 1.98216 1.72152C1.98216 1.57096 1.98216 1.14386 1.98216 1.14386C1.98216 1.0947 1.94469 1.05475 1.89858 1.05475C1.85246 1.05475 1.815 1.0947 1.815 1.14386L1.81788 1.92738C1.81788 1.97655 1.85823 1.98884 1.86976 1.99191C1.98504 1.99191 2.25596 1.99191 2.50959 1.99191C2.84968 1.99191 2.99378 2.03493 3.08889 2.11174C3.1523 2.16398 3.17536 2.2623 3.15518 2.38828C2.9592 3.53131 1.74871 4.94165 1.70259 5.00003ZM4.98533 2.34219C5.29084 2.48046 5.48106 2.63717 5.48106 2.97516C5.48106 3.32237 5.23319 3.54667 4.85275 3.54667C4.54437 3.54667 4.2965 3.39611 4.17257 3.13801L4.1524 3.09499L4.51555 2.87069L4.5386 2.9137C4.6193 3.05505 4.71153 3.1165 4.84411 3.1165C4.95939 3.1165 5.03433 3.06119 5.03433 2.9813C5.03433 2.89219 4.97957 2.8584 4.80664 2.77851L4.72018 2.73856C4.48672 2.63102 4.27057 2.48661 4.27057 2.12711C4.27057 1.80755 4.50114 1.58325 4.83258 1.58325C5.08332 1.58325 5.25337 1.68772 5.37154 1.90895L5.39459 1.94889L5.04297 2.19163L5.01992 2.14554C4.96227 2.03185 4.90463 2.01035 4.83546 2.01035C4.76053 2.01035 4.71441 2.05336 4.71441 2.12096C4.71441 2.19778 4.749 2.23158 4.90175 2.30225L4.98533 2.34219ZM7.55907 2.40672L7.81558 1.6447H8.25654L7.6023 3.58047H7.50431L7.10946 2.67096C7.09216 2.62795 7.07199 2.57879 7.0547 2.52962C7.0374 2.57571 7.01723 2.62795 6.99994 2.67096L6.59068 3.5774H6.49268L5.82979 1.64163H6.29958L6.55897 2.40364C6.57626 2.45281 6.59356 2.51119 6.60797 2.56649C6.62526 2.51119 6.64544 2.44973 6.66849 2.3975L7.00858 1.62319H7.10369L7.44955 2.3975C7.47261 2.44666 7.49278 2.50811 7.51007 2.56649C7.52737 2.51426 7.54466 2.45588 7.55907 2.40672ZM8.77244 3.52209V1.60476H9.21629V3.52209H8.77244ZM10.6746 2.87683V2.44666H11.4989V3.307L11.4816 3.32237C11.3865 3.40533 11.1358 3.5436 10.7986 3.5436C10.225 3.5436 9.8273 3.13801 9.8273 2.56035C9.8273 1.99191 10.2135 1.58017 10.7438 1.58017C11.0349 1.58017 11.2511 1.66928 11.3981 1.84749L11.4269 1.88129L11.1243 2.20085L11.0926 2.16398C11.009 2.0718 10.9196 2.01342 10.7438 2.01342C10.4729 2.01342 10.2827 2.23772 10.2827 2.55728C10.2827 2.8922 10.4844 3.10728 10.7986 3.10728C10.9023 3.10728 11.0119 3.08884 11.0839 3.05812V2.87376H10.6746V2.87683ZM12.9285 2.87683V2.44666H13.7528V3.307L13.7355 3.32237C13.6404 3.40533 13.3896 3.5436 13.0524 3.5436C12.4789 3.5436 12.0811 3.13801 12.0811 2.56035C12.0811 1.99191 12.4673 1.58017 12.9976 1.58017C13.2887 1.58017 13.5049 1.66928 13.6519 1.84749L13.6807 1.88129L13.3781 2.20085L13.3464 2.16398C13.2628 2.0718 13.1734 2.01342 12.9976 2.01342C12.7267 2.01342 12.5365 2.23772 12.5365 2.55728C12.5365 2.8922 12.7382 3.10728 13.0553 3.10728C13.159 3.10728 13.2686 3.08884 13.3406 3.05812V2.87376H12.9285V2.87683ZM15.384 1.60476H15.8481L15.2082 2.8799V3.52209H14.7615V2.90756L14.0842 1.60476H14.5799L14.8941 2.21621C14.9287 2.28381 14.9632 2.36984 14.9892 2.44359C15.0151 2.37292 15.0497 2.28688 15.0814 2.21929L15.384 1.60476Z" fill="#FC8019"/>
</svg>
