<svg width="14" height="4" viewBox="0 0 14 4" fill="none" xmlns="http://www.w3.org/2000/svg">
<path d="M2.50496 0.863287L2.49332 1.32293L1.51758 2.62603C1.92517 2.62603 2.18361 2.62113 2.33264 2.61096C2.28945 2.85826 2.25433 3.06044 2.21894 3.36354C2.02294 3.3432 1.71737 3.33811 1.41164 3.33811C1.07084 3.33811 0.772981 3.34314 0.533936 3.36354L0.541902 2.89869L1.51758 1.6008C1.09045 1.6008 0.933655 1.60575 0.75741 1.61084C0.796466 1.37848 0.823935 1.12101 0.851352 0.863287C1.16091 0.878414 1.28237 0.883371 1.68602 0.883371C2.05832 0.883435 2.26979 0.878414 2.50496 0.863287ZM3.614 0.726768C2.97901 0.726768 2.49332 1.42379 2.49332 2.25746C2.49332 2.88369 2.78715 3.36354 3.35923 3.36354C3.99799 3.36354 4.47996 2.66639 4.47996 1.82782C4.48002 1.20687 4.19384 0.726768 3.614 0.726768ZM3.42193 2.69359C3.28081 2.69359 3.19861 2.53679 3.19861 2.22874C3.19861 1.76909 3.35142 1.40047 3.53961 1.40047C3.67665 1.40047 3.75895 1.55211 3.75895 1.86507C3.7589 2.31962 3.61012 2.69359 3.42193 2.69359ZM12.589 0.692193C11.9459 0.692193 11.4537 1.39843 11.4537 2.24259C11.4537 2.87733 11.7514 3.36354 12.331 3.36354C12.9781 3.36354 13.4664 2.65723 13.4664 1.8078C13.4665 1.17846 13.1768 0.692193 12.589 0.692193ZM12.3824 2.69092C12.2412 2.69092 12.159 2.53412 12.159 2.22607C12.159 1.76643 12.3119 1.39786 12.5001 1.39786C12.637 1.39786 12.7195 1.54938 12.7195 1.8624C12.7194 2.31714 12.5705 2.69092 12.3824 2.69092ZM7.77538 1.63607C7.82639 1.20687 7.79897 0.817844 7.4111 0.817844C7.12891 0.817844 6.82329 1.11084 6.60778 1.6008C6.65486 1.19658 6.62733 0.817844 6.24334 0.817844C5.95339 0.817844 5.63991 1.1259 5.4243 1.63607C5.47918 1.30272 5.46749 0.923793 5.45177 0.843013C5.22845 0.888519 5.0326 0.913688 4.75822 0.923793C4.76608 1.15622 4.75429 1.45907 4.71901 1.74723L4.6289 2.50476C4.59362 2.80291 4.5544 3.14637 4.51519 3.3636H5.24407C5.24805 3.2321 5.27552 3.0251 5.29508 2.84326L5.35777 2.32312C5.40868 1.98449 5.62806 1.58567 5.79655 1.58567C5.89453 1.58567 5.8907 1.70179 5.86323 1.91896L5.79267 2.5047C5.75729 2.80284 5.71823 3.1463 5.67897 3.36354H6.41566C6.41964 3.23204 6.44312 3.02504 6.46268 2.8432L6.52532 2.32305C6.57633 1.98442 6.79587 1.58561 6.96425 1.58561C7.06233 1.58561 7.05845 1.69658 7.04262 1.84822L6.86664 3.36347H7.53898L7.77538 1.63607ZM11.2957 2.57054L11.2173 3.16664C11.0958 3.24742 10.8685 3.36366 10.606 3.36366C10.1592 3.36366 10.0692 3.07067 10.1396 2.4494L10.2533 1.44928H10.0335L10.0955 0.801892L10.3356 0.787655L10.4257 0.317909L11.1035 0.00463867L11.0174 0.787592H11.4838C11.4681 0.868372 11.4131 1.31301 11.3977 1.44921H10.9429L10.841 2.37358C10.8135 2.61096 10.8293 2.69689 10.9624 2.69689C11.0606 2.69677 11.2054 2.62603 11.2957 2.57054ZM8.72448 2.89252C8.97118 2.85496 9.14096 2.56279 9.18177 2.27126L9.18865 2.19314C9.08266 2.16404 8.92943 2.14185 8.78086 2.16416C8.63938 2.18533 8.52164 2.25759 8.45832 2.3622C8.41058 2.43733 8.38657 2.5272 8.39723 2.63435C8.41332 2.79483 8.5578 2.9175 8.72448 2.89252ZM8.5145 3.35419C8.16631 3.40676 7.93699 3.23693 7.86813 2.8507C7.82494 2.60766 7.8849 2.33081 7.98975 2.16562C8.1302 1.9496 8.35905 1.81092 8.63834 1.76903C8.86311 1.73477 9.0525 1.75168 9.22962 1.79287L9.23697 1.75556C9.24204 1.69588 9.24716 1.63633 9.24007 1.56501C9.22171 1.38191 9.10417 1.27285 8.81397 1.3167C8.61817 1.34625 8.43189 1.43314 8.28725 1.53203L8.14655 1.00966C8.3426 0.871359 8.58972 0.766109 8.87253 0.723463C9.41274 0.642047 9.79234 0.85369 9.84097 1.34028C9.85385 1.46968 9.8554 1.60684 9.84211 1.73128C9.77274 2.33291 9.7283 2.78562 9.7088 3.08904C9.70564 3.13601 9.7059 3.21672 9.70931 3.33112L9.03894 3.33036C9.05322 3.28295 9.066 3.21863 9.07738 3.13798C9.08493 3.08491 9.09031 3.01798 9.09367 2.93688C8.95198 3.17573 8.75722 3.31759 8.5145 3.35419Z" fill="#E23744"/>
</svg>
